<svg width="18" height="18" viewBox="0 0 18 18" fill="none" xmlns="http://www.w3.org/2000/svg">
<path d="M9.75 4.5V3H8.25V4.5H9.75Z" fill="white"/>
<path d="M6.34835 5.28769L5.28769 4.22703L4.22703 5.28769L5.28769 6.34835L6.34835 5.28769Z" fill="white"/>
<path fill-rule="evenodd" clip-rule="evenodd" d="M12 9C12 7.34315 10.6569 6 9 6C7.34315 6 6 7.34315 6 9C6 10.6569 7.34315 12 9 12C10.6569 12 12 10.6569 12 9ZM7.5 9C7.5 8.17157 8.17157 7.5 9 7.5C9.82843 7.5 10.5 8.17157 10.5 9C10.5 9.82843 9.82843 10.5 9 10.5C8.17157 10.5 7.5 9.82843 7.5 9Z" fill="white"/>
<path d="M9.75 13.5V15H8.25V13.5H9.75Z" fill="white"/>
<path d="M6.34835 12.7123L5.28769 11.6517L4.22703 12.7123L5.28769 13.773L6.34835 12.7123Z" fill="white"/>
<path d="M12.7123 11.6517L13.773 12.7123L12.7123 13.773L11.6517 12.7123L12.7123 11.6517Z" fill="white"/>
<path d="M4.5 9.75V8.25H3V9.75H4.5Z" fill="white"/>
<path d="M15 9.75H13.5V8.25H15V9.75Z" fill="white"/>
<path d="M12.7123 4.22703L13.773 5.28769L12.7123 6.34835L11.6517 5.28769L12.7123 4.22703Z" fill="white"/>
</svg>
