<svg width="18" height="18" viewBox="0 0 18 18" fill="none" xmlns="http://www.w3.org/2000/svg">
<path d="M9.75 3.75V0.75H8.25V3.75H9.75Z" fill="white"/>
<path d="M5.81802 4.75736L3.6967 2.63604L2.63604 3.6967L4.75736 5.81802L5.81802 4.75736Z" fill="white"/>
<path fill-rule="evenodd" clip-rule="evenodd" d="M9.18962 12.7453L9.95876 11.0361C9.6679 11.1733 9.34291 11.25 9 11.25C7.75736 11.25 6.75 10.2426 6.75 9C6.75 7.75736 7.75736 6.75 9 6.75C10.0229 6.75 10.8864 7.43261 11.1598 8.36716L11.9289 6.65798C11.2417 5.79968 10.185 5.25 9 5.25C6.92893 5.25 5.25 6.92893 5.25 9C5.25 11.0711 6.92893 12.75 9 12.75C9.06359 12.75 9.12681 12.7484 9.18962 12.7453Z" fill="white"/>
<path d="M5.81802 13.2426L4.75736 12.182L2.63604 14.3033L3.6967 15.364L5.81802 13.2426Z" fill="white"/>
<path d="M3.75 9.75V8.25H0.75V9.75H3.75Z" fill="white"/>
<path d="M14.3033 2.63604L15.364 3.6967L13.2426 5.81802L12.182 4.75736L14.3033 2.63604Z" fill="white"/>
<path d="M11.1187 17H9L12.2283 8H14.7763L18 17H15.8813L13.5388 10.0566H13.4658L11.1187 17ZM10.9863 13.4624H15.9909V14.9478H10.9863V13.4624Z" fill="white"/>
</svg>
