<svg width="18" height="18" viewBox="0 0 18 18" fill="none" xmlns="http://www.w3.org/2000/svg">
<path fill-rule="evenodd" clip-rule="evenodd" d="M12.75 5.25C12.75 3.59315 11.4069 2.25 9.75 2.25C8.35205 2.25 7.17743 3.20617 6.84447 4.50018L1.5 4.5V6L6.84466 6.00057C7.17789 7.2942 8.35233 8.25 9.75 8.25C11.4069 8.25 12.75 6.90685 12.75 5.25ZM9.75 3.75C8.92157 3.75 8.25 4.42157 8.25 5.25C8.25 6.07843 8.92157 6.75 9.75 6.75C10.5784 6.75 11.25 6.07843 11.25 5.25C11.25 4.42157 10.5784 3.75 9.75 3.75Z" fill="white"/>
<path fill-rule="evenodd" clip-rule="evenodd" d="M9 12.75C9 11.0931 7.65685 9.75 6 9.75C4.60205 9.75 3.42743 10.7062 3.09447 12.0002L1.5 12V13.5L3.09466 13.5006C3.42789 14.7942 4.60233 15.75 6 15.75C7.65685 15.75 9 14.4069 9 12.75ZM4.5 12.75C4.5 11.9216 5.17157 11.25 6 11.25C6.82843 11.25 7.5 11.9216 7.5 12.75C7.5 13.5784 6.82843 14.25 6 14.25C5.17157 14.25 4.5 13.5784 4.5 12.75Z" fill="white"/>
<path d="M16.5 13.5H10.5V12H16.5V13.5Z" fill="white"/>
<path d="M14.25 6H16.5V4.5H14.25V6Z" fill="white"/>
</svg>
