<svg width="18" height="18" viewBox="0 0 18 18" fill="none" xmlns="http://www.w3.org/2000/svg">
<path d="M9.75 3.75V0.75H8.25V3.75H9.75Z" fill="white"/>
<path d="M5.81802 4.75736L3.6967 2.63604L2.63604 3.6967L4.75736 5.81802L5.81802 4.75736Z" fill="white"/>
<path fill-rule="evenodd" clip-rule="evenodd" d="M12.75 9C12.75 6.92893 11.0711 5.25 9 5.25C6.92893 5.25 5.25 6.92893 5.25 9C5.25 11.0711 6.92893 12.75 9 12.75C11.0711 12.75 12.75 11.0711 12.75 9ZM9 6.75C7.75736 6.75 6.75 7.75736 6.75 9C6.75 10.2426 7.75736 11.25 9 11.25C10.2426 11.25 11.25 10.2426 11.25 9C11.25 7.75736 10.2426 6.75 9 6.75Z" fill="white"/>
<path d="M5.81802 13.2426L4.75736 12.182L2.63604 14.3033L3.6967 15.364L5.81802 13.2426Z" fill="white"/>
<path d="M9.75 17.25V14.25H8.25V17.25H9.75Z" fill="white"/>
<path d="M15.364 14.3033L14.3033 15.364L12.182 13.2426L13.2426 12.182L15.364 14.3033Z" fill="white"/>
<path d="M3.75 9.75V8.25H0.75V9.75H3.75Z" fill="white"/>
<path d="M17.25 8.25V9.75H14.25V8.25H17.25Z" fill="white"/>
<path d="M14.3033 2.63604L15.364 3.6967L13.2426 5.81802L12.182 4.75736L14.3033 2.63604Z" fill="white"/>
</svg>
