<?xml version="1.0" encoding="UTF-8"?>
<svg id="Layer_1" xmlns="http://www.w3.org/2000/svg" version="1.1" viewBox="0 0 18 18">
  <!-- Generator: Adobe Illustrator 29.6.1, SVG Export Plug-In . SVG Version: 2.1.1 Build 9)  -->
  <defs>
    <style>
      .st0 {
        fill: #8f9194;
      }
    </style>
  </defs>
  <path class="st0" d="M9.75,3.75V.75h-1.5v3h1.5ZM5.82,4.76l-2.12-2.12-1.06,1.06,2.12,2.12,1.06-1.06ZM9.19,12.75l.77-1.71c-.29.14-.62.21-.96.21-1.24,0-2.25-1.01-2.25-2.25s1.01-2.25,2.25-2.25c1.02,0,1.89.68,2.16,1.62l.77-1.71c-.69-.86-1.74-1.41-2.93-1.41-2.07,0-3.75,1.68-3.75,3.75s1.68,3.75,3.75,3.75c.06,0,.13,0,.19,0ZM5.82,13.24l-1.06-1.06-2.12,2.12,1.06,1.06,2.12-2.12ZM3.75,9.75v-1.5H.75v1.5h3ZM14.3,2.64l1.06,1.06-2.12,2.12-1.06-1.06,2.12-2.12ZM15.88,17h2.12l-3.22-9h-2.55l-3.23,9h2.12l.69-2.05h3.38l.69,2.05ZM12.31,13.46l1.15-3.41h.07l1.15,3.41h-2.37Z"/>
</svg>