<?xml version="1.0" encoding="UTF-8"?>
<svg id="Layer_1" xmlns="http://www.w3.org/2000/svg" version="1.1" viewBox="0 0 19 18">
  <!-- Generator: Adobe Illustrator 29.6.1, SVG Export Plug-In . SVG Version: 2.1.1 Build 9)  -->
  <defs>
    <style>
      .st0 {
        fill: #f8bbd6;
      }
    </style>
  </defs>
  <path class="st0" d="M13.9,12c0-.41-.34-.75-.75-.75s-.75.34-.75.75.34.75.75.75.75-.34.75-.75ZM5.65,11.25c.41,0,.75.34.75.75s-.34.75-.75.75-.75-.34-.75-.75.34-.75.75-.75ZM11.65,12.75v-1.5h-4.5v1.5h4.5ZM17.65,7.5c0-.83-.67-1.5-1.5-1.5H2.65c-.83,0-1.5.67-1.5,1.5v9c0,.83.67,1.5,1.5,1.5h13.5c.83,0,1.5-.67,1.5-1.5V7.5ZM2.65,7.5h13.5v9h-1.61l-.17-1c-.12-.72-.75-1.25-1.48-1.25h-6.98c-.73,0-1.36.53-1.48,1.25l-.17,1h-1.61V7.5ZM13.01,16.5h-7.23l.12-.75h6.98l.12.75ZM9.4,3.09l-.75-.62L6.18,0l-1.06,1.06,4.28,4.28L13.68,1.06,12.62,0l-2.47,2.47-.75.62Z"/>
</svg>