<?xml version="1.0" encoding="UTF-8"?>
<svg id="Layer_1" xmlns="http://www.w3.org/2000/svg" version="1.1" viewBox="0 0 19 18">
  <!-- Generator: Adobe Illustrator 29.6.1, SVG Export Plug-In . SVG Version: 2.1.1 Build 9)  -->
  <defs>
    <style>
      .st0 {
        fill: #f8bbd6;
      }
    </style>
  </defs>
  <path class="st0" d="M13.9,6c0-.41-.34-.75-.75-.75s-.75.34-.75.75.34.75.75.75.75-.34.75-.75ZM5.65,5.25c.41,0,.75.34.75.75s-.34.75-.75.75-.75-.34-.75-.75.34-.75.75-.75ZM11.65,6.75v-1.5h-4.5v1.5h4.5ZM17.65,1.5C17.65.67,16.98,0,16.15,0H2.65C1.82,0,1.15.67,1.15,1.5v9c0,.83.67,1.5,1.5,1.5h13.5c.83,0,1.5-.67,1.5-1.5V1.5ZM2.65,1.5h13.5v9h-1.61l-.17-1c-.12-.72-.75-1.25-1.48-1.25h-6.98c-.73,0-1.36.53-1.48,1.25l-.17,1h-1.61s0-9,0-9ZM13.01,10.5h-7.23l.12-.75h6.98l.12.75h.01ZM9.4,14.91l.75.62,2.47,2.47,1.06-1.06-4.28-4.28-4.28,4.28,1.06,1.06,2.47-2.47s.75-.62.75-.62Z"/>
  <path class="st0" d="M-6.91,12c0-.41-.34-.75-.75-.75s-.75.34-.75.75.34.75.75.75.75-.34.75-.75ZM-15.16,11.25c.41,0,.75.34.75.75s-.34.75-.75.75-.75-.34-.75-.75.34-.75.75-.75ZM-9.16,12.75v-1.5h-4.5v1.5h4.5ZM-3.16,7.5c0-.83-.67-1.5-1.5-1.5h-13.5c-.83,0-1.5.67-1.5,1.5v9c0,.83.67,1.5,1.5,1.5H-4.66c.83,0,1.5-.67,1.5-1.5V7.5ZM-18.16,7.5H-4.66v9h-1.61l-.17-1c-.12-.72-.75-1.25-1.48-1.25h-6.98c-.73,0-1.36.53-1.48,1.25l-.17,1h-1.61s0-9,0-9ZM-7.8,16.5h-7.23l.12-.75h6.98l.12.75h.01ZM-11.41,3.09l-.75-.62L-14.63,0l-1.06,1.06,4.28,4.28L-7.13,1.06-8.19,0l-2.47,2.47s-.75.62-.75.62Z"/>
</svg>