<svg width="18" height="18" viewBox="0 0 18 18" fill="none" xmlns="http://www.w3.org/2000/svg">
<path d="M8.25 6.75V4.5H6.75V6.75H4.5V8.25H6.75V10.5H8.25V8.25H10.5V6.75H8.25Z" fill="white"/>
<path fill-rule="evenodd" clip-rule="evenodd" d="M7.5 1.5C10.8137 1.5 13.5 4.18629 13.5 7.5C13.5 8.88615 13.0299 10.1625 12.2405 11.1784L16.2803 15.2197L15.2197 16.2803L11.1784 12.2405C10.1625 13.0299 8.88615 13.5 7.5 13.5C4.18629 13.5 1.5 10.8137 1.5 7.5C1.5 4.18629 4.18629 1.5 7.5 1.5ZM7.5 3C5.01472 3 3 5.01472 3 7.5C3 9.98528 5.01472 12 7.5 12C9.98528 12 12 9.98528 12 7.5C12 5.01472 9.98528 3 7.5 3Z" fill="white"/>
</svg>
