<?xml version="1.0" encoding="UTF-8"?>
<svg id="Layer_1" xmlns="http://www.w3.org/2000/svg" version="1.1" viewBox="0 0 18 18">
  <!-- Generator: Adobe Illustrator 29.6.1, SVG Export Plug-In . SVG Version: 2.1.1 Build 9)  -->
  <defs>
    <style>
      .st0 {
        fill-rule: evenodd;
      }

      .st0, .st1 {
        fill: #a11d21;
      }
    </style>
  </defs>
  <path class="st1" d="M8.25,6.75v-2.25h-1.5v2.25h-2.25v1.5h2.25v2.25h1.5v-2.25h2.25v-1.5h-2.25Z"/>
  <path class="st0" d="M7.5,1.5c3.31,0,6,2.69,6,6,0,1.39-.47,2.66-1.26,3.68l4.04,4.04-1.06,1.06-4.04-4.04c-1.02.79-2.29,1.26-3.68,1.26-3.31,0-6-2.69-6-6S4.19,1.5,7.5,1.5ZM7.5,3c-2.49,0-4.5,2.01-4.5,4.5s2.01,4.5,4.5,4.5,4.5-2.01,4.5-4.5-2.01-4.5-4.5-4.5Z"/>
</svg>